<?xml version="1.0" encoding="us-ascii" standalone="no"?><svg xmlns="http://www.w3.org/2000/svg" xmlns:xlink="http://www.w3.org/1999/xlink" contentStyleType="text/css" height="568px" preserveAspectRatio="none" style="width:1059px;height:568px;background:#FFFFFF;" version="1.1" viewBox="0 0 1059 568" width="1059px" zoomAndPan="magnify"><defs/><g><text fill="#000000" font-family="sans-serif" font-size="14" font-weight="bold" lengthAdjust="spacing" textLength="414" x="324" y="27.9951">Amazon S3 Image Upload and Processing Workflow</text><line style="stroke:#181818;stroke-width:0.5;stroke-dasharray:5.0,5.0;" x1="23" x2="23" y1="118.5938" y2="488.1875"/><line style="stroke:#181818;stroke-width:0.5;stroke-dasharray:5.0,5.0;" x1="177" x2="177" y1="118.5938" y2="488.1875"/><line style="stroke:#181818;stroke-width:0.5;stroke-dasharray:5.0,5.0;" x1="315.5" x2="315.5" y1="118.5938" y2="488.1875"/><line style="stroke:#181818;stroke-width:0.5;stroke-dasharray:5.0,5.0;" x1="427.5" x2="427.5" y1="118.5938" y2="488.1875"/><line style="stroke:#181818;stroke-width:0.5;stroke-dasharray:5.0,5.0;" x1="675.5" x2="675.5" y1="118.5938" y2="488.1875"/><line style="stroke:#181818;stroke-width:0.5;stroke-dasharray:5.0,5.0;" x1="838.5" x2="838.5" y1="118.5938" y2="488.1875"/><line style="stroke:#181818;stroke-width:0.5;stroke-dasharray:5.0,5.0;" x1="988" x2="988" y1="118.5938" y2="488.1875"/><text fill="#000000" font-family="sans-serif" font-size="14" lengthAdjust="spacing" textLength="31" x="5" y="115.292">User</text><ellipse cx="23.5" cy="50.7969" fill="#E2E2F0" rx="8" ry="8" style="stroke:#181818;stroke-width:0.5;"/><path d="M23.5,58.7969 L23.5,85.7969 M10.5,66.7969 L36.5,66.7969 M23.5,85.7969 L10.5,100.7969 M23.5,85.7969 L36.5,100.7969 " fill="none" style="stroke:#181818;stroke-width:0.5;"/><text fill="#000000" font-family="sans-serif" font-size="14" lengthAdjust="spacing" textLength="31" x="5" y="500.1826">User</text><ellipse cx="23.5" cy="511.9844" fill="#E2E2F0" rx="8" ry="8" style="stroke:#181818;stroke-width:0.5;"/><path d="M23.5,519.9844 L23.5,546.9844 M10.5,527.9844 L36.5,527.9844 M23.5,546.9844 L10.5,561.9844 M23.5,546.9844 L36.5,561.9844 " fill="none" style="stroke:#181818;stroke-width:0.5;"/><text fill="#000000" font-family="sans-serif" font-size="14" lengthAdjust="spacing" textLength="89" x="130" y="115.292">API Gateway</text><ellipse cx="177.5" cy="86.2969" fill="#E2E2F0" rx="12" ry="12" style="stroke:#181818;stroke-width:0.5;"/><line style="stroke:#181818;stroke-width:0.5;" x1="165.5" x2="189.5" y1="100.2969" y2="100.2969"/><text fill="#000000" font-family="sans-serif" font-size="14" lengthAdjust="spacing" textLength="89" x="130" y="500.1826">API Gateway</text><ellipse cx="177.5" cy="519.4844" fill="#E2E2F0" rx="12" ry="12" style="stroke:#181818;stroke-width:0.5;"/><line style="stroke:#181818;stroke-width:0.5;" x1="165.5" x2="189.5" y1="533.4844" y2="533.4844"/><path d="M274.5,92.2969 L356.5,92.2969 C361.5,92.2969 361.5,105.4453 361.5,105.4453 C361.5,105.4453 361.5,118.5938 356.5,118.5938 L274.5,118.5938 C269.5,118.5938 269.5,105.4453 269.5,105.4453 C269.5,105.4453 269.5,92.2969 274.5,92.2969 " fill="#E2E2F0" style="stroke:#181818;stroke-width:0.5;"/><path d="M356.5,92.2969 C351.5,92.2969 351.5,105.4453 351.5,105.4453 C351.5,118.5938 356.5,118.5938 356.5,118.5938 " fill="none" style="stroke:#181818;stroke-width:0.5;"/><text fill="#000000" font-family="sans-serif" font-size="14" lengthAdjust="spacing" textLength="72" x="274.5" y="110.292">SNS Topic</text><path d="M274.5,487.1875 L356.5,487.1875 C361.5,487.1875 361.5,500.3359 361.5,500.3359 C361.5,500.3359 361.5,513.4844 356.5,513.4844 L274.5,513.4844 C269.5,513.4844 269.5,500.3359 269.5,500.3359 C269.5,500.3359 269.5,487.1875 274.5,487.1875 " fill="#E2E2F0" style="stroke:#181818;stroke-width:0.5;"/><path d="M356.5,487.1875 C351.5,487.1875 351.5,500.3359 351.5,500.3359 C351.5,513.4844 356.5,513.4844 356.5,513.4844 " fill="none" style="stroke:#181818;stroke-width:0.5;"/><text fill="#000000" font-family="sans-serif" font-size="14" lengthAdjust="spacing" textLength="72" x="274.5" y="505.1826">SNS Topic</text><text fill="#000000" font-family="sans-serif" font-size="14" lengthAdjust="spacing" textLength="106" x="371.5" y="115.292">S3 Raw Bucket</text><path d="M409.5,66.2969 C409.5,56.2969 427.5,56.2969 427.5,56.2969 C427.5,56.2969 445.5,56.2969 445.5,66.2969 L445.5,92.2969 C445.5,102.2969 427.5,102.2969 427.5,102.2969 C427.5,102.2969 409.5,102.2969 409.5,92.2969 L409.5,66.2969 " fill="#E2E2F0" style="stroke:#181818;stroke-width:1.5;"/><path d="M409.5,66.2969 C409.5,76.2969 427.5,76.2969 427.5,76.2969 C427.5,76.2969 445.5,76.2969 445.5,66.2969 " fill="none" style="stroke:#181818;stroke-width:1.5;"/><text fill="#000000" font-family="sans-serif" font-size="14" lengthAdjust="spacing" textLength="106" x="371.5" y="500.1826">S3 Raw Bucket</text><path d="M409.5,513.4844 C409.5,503.4844 427.5,503.4844 427.5,503.4844 C427.5,503.4844 445.5,503.4844 445.5,513.4844 L445.5,539.4844 C445.5,549.4844 427.5,549.4844 427.5,549.4844 C427.5,549.4844 409.5,549.4844 409.5,539.4844 L409.5,513.4844 " fill="#E2E2F0" style="stroke:#181818;stroke-width:1.5;"/><path d="M409.5,513.4844 C409.5,523.4844 427.5,523.4844 427.5,523.4844 C427.5,523.4844 445.5,523.4844 445.5,513.4844 " fill="none" style="stroke:#181818;stroke-width:1.5;"/><path d="M631.5,92.2969 L719.5,92.2969 C724.5,92.2969 724.5,105.4453 724.5,105.4453 C724.5,105.4453 724.5,118.5938 719.5,118.5938 L631.5,118.5938 C626.5,118.5938 626.5,105.4453 626.5,105.4453 C626.5,105.4453 626.5,92.2969 631.5,92.2969 " fill="#E2E2F0" style="stroke:#181818;stroke-width:0.5;"/><path d="M719.5,92.2969 C714.5,92.2969 714.5,105.4453 714.5,105.4453 C714.5,118.5938 719.5,118.5938 719.5,118.5938 " fill="none" style="stroke:#181818;stroke-width:0.5;"/><text fill="#000000" font-family="sans-serif" font-size="14" lengthAdjust="spacing" textLength="78" x="631.5" y="110.292">SQS Queue</text><path d="M631.5,487.1875 L719.5,487.1875 C724.5,487.1875 724.5,500.3359 724.5,500.3359 C724.5,500.3359 724.5,513.4844 719.5,513.4844 L631.5,513.4844 C626.5,513.4844 626.5,500.3359 626.5,500.3359 C626.5,500.3359 626.5,487.1875 631.5,487.1875 " fill="#E2E2F0" style="stroke:#181818;stroke-width:0.5;"/><path d="M719.5,487.1875 C714.5,487.1875 714.5,500.3359 714.5,500.3359 C714.5,513.4844 719.5,513.4844 719.5,513.4844 " fill="none" style="stroke:#181818;stroke-width:0.5;"/><text fill="#000000" font-family="sans-serif" font-size="14" lengthAdjust="spacing" textLength="78" x="631.5" y="505.1826">SQS Queue</text><text fill="#000000" font-family="sans-serif" font-size="14" lengthAdjust="spacing" textLength="114" x="778.5" y="115.292">Lambda Resizer</text><ellipse cx="838.5" cy="86.2969" fill="#E2E2F0" rx="12" ry="12" style="stroke:#181818;stroke-width:0.5;"/><line style="stroke:#181818;stroke-width:0.5;" x1="826.5" x2="850.5" y1="100.2969" y2="100.2969"/><text fill="#000000" font-family="sans-serif" font-size="14" lengthAdjust="spacing" textLength="114" x="778.5" y="500.1826">Lambda Resizer</text><ellipse cx="838.5" cy="519.4844" fill="#E2E2F0" rx="12" ry="12" style="stroke:#181818;stroke-width:0.5;"/><line style="stroke:#181818;stroke-width:0.5;" x1="826.5" x2="850.5" y1="533.4844" y2="533.4844"/><text fill="#000000" font-family="sans-serif" font-size="14" lengthAdjust="spacing" textLength="133" x="919" y="115.292">S3 Resized Bucket</text><path d="M970.5,66.2969 C970.5,56.2969 988.5,56.2969 988.5,56.2969 C988.5,56.2969 1006.5,56.2969 1006.5,66.2969 L1006.5,92.2969 C1006.5,102.2969 988.5,102.2969 988.5,102.2969 C988.5,102.2969 970.5,102.2969 970.5,92.2969 L970.5,66.2969 " fill="#E2E2F0" style="stroke:#181818;stroke-width:1.5;"/><path d="M970.5,66.2969 C970.5,76.2969 988.5,76.2969 988.5,76.2969 C988.5,76.2969 1006.5,76.2969 1006.5,66.2969 " fill="none" style="stroke:#181818;stroke-width:1.5;"/><text fill="#000000" font-family="sans-serif" font-size="14" lengthAdjust="spacing" textLength="133" x="919" y="500.1826">S3 Resized Bucket</text><path d="M970.5,513.4844 C970.5,503.4844 988.5,503.4844 988.5,503.4844 C988.5,503.4844 1006.5,503.4844 1006.5,513.4844 L1006.5,539.4844 C1006.5,549.4844 988.5,549.4844 988.5,549.4844 C988.5,549.4844 970.5,549.4844 970.5,539.4844 L970.5,513.4844 " fill="#E2E2F0" style="stroke:#181818;stroke-width:1.5;"/><path d="M970.5,513.4844 C970.5,523.4844 988.5,523.4844 988.5,523.4844 C988.5,523.4844 1006.5,523.4844 1006.5,513.4844 " fill="none" style="stroke:#181818;stroke-width:1.5;"/><polygon fill="#181818" points="165.5,145.7266,175.5,149.7266,165.5,153.7266,169.5,149.7266" style="stroke:#181818;stroke-width:1.0;"/><line style="stroke:#181818;stroke-width:1.0;" x1="23.5" x2="171.5" y1="149.7266" y2="149.7266"/><text fill="#000000" font-family="sans-serif" font-size="13" lengthAdjust="spacing" textLength="103" x="30.5" y="144.6606">POST /subscribe</text><polygon fill="#181818" points="303.5,174.8594,313.5,178.8594,303.5,182.8594,307.5,178.8594" style="stroke:#181818;stroke-width:1.0;"/><line style="stroke:#181818;stroke-width:1.0;" x1="177.5" x2="309.5" y1="178.8594" y2="178.8594"/><text fill="#000000" font-family="sans-serif" font-size="13" lengthAdjust="spacing" textLength="114" x="184.5" y="173.7935">Subscribe to topic</text><polygon fill="#181818" points="34.5,203.9922,24.5,207.9922,34.5,211.9922,30.5,207.9922" style="stroke:#181818;stroke-width:1.0;"/><line style="stroke:#181818;stroke-width:1.0;stroke-dasharray:2.0,2.0;" x1="28.5" x2="314.5" y1="207.9922" y2="207.9922"/><text fill="#000000" font-family="sans-serif" font-size="13" lengthAdjust="spacing" textLength="132" x="40.5" y="202.9263">Confirm subscription</text><polygon fill="#181818" points="165.5,233.125,175.5,237.125,165.5,241.125,169.5,237.125" style="stroke:#181818;stroke-width:1.0;"/><line style="stroke:#181818;stroke-width:1.0;" x1="23.5" x2="171.5" y1="237.125" y2="237.125"/><text fill="#000000" font-family="sans-serif" font-size="13" lengthAdjust="spacing" textLength="130" x="30.5" y="232.0591">POST /upload-image</text><polygon fill="#181818" points="415.5,262.2578,425.5,266.2578,415.5,270.2578,419.5,266.2578" style="stroke:#181818;stroke-width:1.0;"/><line style="stroke:#181818;stroke-width:1.0;" x1="177.5" x2="421.5" y1="266.2578" y2="266.2578"/><text fill="#000000" font-family="sans-serif" font-size="13" lengthAdjust="spacing" textLength="125" x="184.5" y="261.1919">Upload image to S3</text><polygon fill="#181818" points="663.5,291.3906,673.5,295.3906,663.5,299.3906,667.5,295.3906" style="stroke:#181818;stroke-width:1.0;"/><line style="stroke:#181818;stroke-width:1.0;" x1="427.5" x2="669.5" y1="295.3906" y2="295.3906"/><text fill="#000000" font-family="sans-serif" font-size="13" lengthAdjust="spacing" textLength="224" x="434.5" y="290.3247">Send message with image location</text><polygon fill="#181818" points="826.5,320.5234,836.5,324.5234,826.5,328.5234,830.5,324.5234" style="stroke:#181818;stroke-width:1.0;"/><line style="stroke:#181818;stroke-width:1.0;" x1="675.5" x2="832.5" y1="324.5234" y2="324.5234"/><text fill="#000000" font-family="sans-serif" font-size="13" lengthAdjust="spacing" textLength="139" x="682.5" y="319.4575">Trigger with message</text><polygon fill="#181818" points="438.5,349.6563,428.5,353.6563,438.5,357.6563,434.5,353.6563" style="stroke:#181818;stroke-width:1.0;"/><line style="stroke:#181818;stroke-width:1.0;" x1="432.5" x2="837.5" y1="353.6563" y2="353.6563"/><text fill="#000000" font-family="sans-serif" font-size="13" lengthAdjust="spacing" textLength="67" x="444.5" y="348.5903">Get image</text><polygon fill="#181818" points="976.5,378.7891,986.5,382.7891,976.5,386.7891,980.5,382.7891" style="stroke:#181818;stroke-width:1.0;"/><line style="stroke:#181818;stroke-width:1.0;" x1="838.5" x2="982.5" y1="382.7891" y2="382.7891"/><text fill="#000000" font-family="sans-serif" font-size="13" lengthAdjust="spacing" textLength="126" x="845.5" y="377.7231">Save resized image</text><polygon fill="#181818" points="438.5,407.9219,428.5,411.9219,438.5,415.9219,434.5,411.9219" style="stroke:#181818;stroke-width:1.0;"/><line style="stroke:#181818;stroke-width:1.0;" x1="432.5" x2="837.5" y1="411.9219" y2="411.9219"/><text fill="#000000" font-family="sans-serif" font-size="13" lengthAdjust="spacing" textLength="136" x="444.5" y="406.856">Delete original image</text><polygon fill="#181818" points="326.5,437.0547,316.5,441.0547,326.5,445.0547,322.5,441.0547" style="stroke:#181818;stroke-width:1.0;"/><line style="stroke:#181818;stroke-width:1.0;" x1="320.5" x2="837.5" y1="441.0547" y2="441.0547"/><text fill="#000000" font-family="sans-serif" font-size="13" lengthAdjust="spacing" textLength="270" x="332.5" y="435.9888">Publish notification with resized image link</text><polygon fill="#181818" points="34.5,466.1875,24.5,470.1875,34.5,474.1875,30.5,470.1875" style="stroke:#181818;stroke-width:1.0;"/><line style="stroke:#181818;stroke-width:1.0;stroke-dasharray:2.0,2.0;" x1="28.5" x2="314.5" y1="470.1875" y2="470.1875"/><text fill="#000000" font-family="sans-serif" font-size="13" lengthAdjust="spacing" textLength="194" x="40.5" y="465.1216">Receives link of resized image</text><!--SRC=[TP5FRy8m3CNl-HGMTxH3RnmciKr2IDFMqgATtTOj5ct2afGAFltofsC3Dgc7nhzdF-V5ikq8bZsUbOGyWNMFBS7sq2ci0MKDgLOL6SEoXG-bzqsdHY6miah3rf0M92tR4yoMwHfMQ6d4qmpGW3klnET00y4iVykXK0Uk0d6dGjHeiKJZOG8R7E5fgFPaeo1nXKjlbaFcVoFAyknY-OfzMIDioF2PTE2nT3CzyFh68HQ5y9U0-MFO5nQGlkS5F9YXD9NcaaGeE-oNTZZ_1c2L-zoLH21p9mcJ5l2iPCEwXsd6mRAI_zWC8UOv-yn_dFpjdMHwWm2zMvw8YBp6nU2t8VT0lNiTBndPxYPrfogCja7e6gQe5b1eRbktIb1FhMAYlynNPEEiQpObwPpnIA2dun_2CEI5Eh84obconEvU5pDDXx9ZimEfB3SSDu_xNHb0nt9_b_Q6Ak8ZcK11DTSzNm00]--></g></svg>